<svg width="360" height="800" viewBox="0 0 360 800" fill="none" xmlns="http://www.w3.org/2000/svg">
<path d="M0.681489 0.479832C0.862234 20.1183 9.23726 38.8769 23.9641 52.629C38.691 66.3811 58.5635 74.0002 79.2097 73.8102C99.8559 73.6202 119.585 65.6366 134.056 51.6158C148.527 37.5949 156.556 18.6853 156.375 -0.953104L78.5282 -0.23664L0.681489 0.479832Z" fill="#3755AB"/>
<path d="M-0.504807 735.021C7.05259 735.027 14.3039 730.713 19.6539 723.028C25.0038 715.344 28.0143 704.918 28.0229 694.044C28.0315 683.171 25.0376 672.74 19.6998 665.047C14.3621 657.354 7.11763 653.029 -0.439767 653.023L-0.472289 694.022L-0.504807 735.021Z" fill="#3755AB"/>
<path d="M361.478 819.515C361.536 799.875 353.391 781.015 338.832 767.085C324.274 753.154 304.496 745.293 283.849 745.232C263.202 745.17 243.378 752.913 228.737 766.757C214.096 780.601 205.838 799.412 205.78 819.051L283.629 819.283L361.478 819.515Z" fill="#3755AB"/>
<path d="M359.652 21.0545C352.095 21.0401 344.839 25.3457 339.48 33.0243C334.122 40.7028 331.099 51.1253 331.079 61.9989C331.058 72.8725 334.04 83.3065 339.369 91.0056C344.698 98.7046 351.938 103.038 359.495 103.053L359.574 62.0535L359.652 21.0545Z" fill="#3755AB"/>
<g filter="url(#filter0_b_510_3545)">
<path d="M0 0H360V800H0V0Z" fill="white" fill-opacity="0.08"/>
</g>
<defs>
<filter id="filter0_b_510_3545" x="-30" y="-30" width="420" height="860" filterUnits="userSpaceOnUse" color-interpolation-filters="sRGB">
<feFlood flood-opacity="0" result="BackgroundImageFix"/>
<feGaussianBlur in="BackgroundImageFix" stdDeviation="15"/>
<feComposite in2="SourceAlpha" operator="in" result="effect1_backgroundBlur_510_3545"/>
<feBlend mode="normal" in="SourceGraphic" in2="effect1_backgroundBlur_510_3545" result="shape"/>
</filter>
</defs>
</svg>
